<?xml version="1.0" encoding="utf-8"?>
<!-- Generator: Adobe Illustrator 16.0.0, SVG Export Plug-In . SVG Version: 6.00 Build 0)  -->
<!DOCTYPE svg PUBLIC "-//W3C//DTD SVG 1.1//EN" "http://www.w3.org/Graphics/SVG/1.1/DTD/svg11.dtd">
<svg version="1.1" id="Layer_1" xmlns="http://www.w3.org/2000/svg" xmlns:xlink="http://www.w3.org/1999/xlink" x="0px" y="0px"
	 width="292.772px" height="45.04px" viewBox="0 0 292.772 45.04" enable-background="new 0 0 292.772 45.04" xml:space="preserve">
<g>
	<g>
		<g>
			<g>
				
					<radialGradient id="SVGID_1_" cx="11.5327" cy="92.3916" r="34.0838" gradientTransform="matrix(0.9987 0.0503 -0.0503 0.9987 25.4908 -78.1148)" gradientUnits="userSpaceOnUse">
					<stop  offset="0" style="stop-color:#FFFFFF"/>
					<stop  offset="1" style="stop-color:#E6E6E6"/>
				</radialGradient>
				<path fill="url(#SVGID_1_)" d="M22.918,43.236c-1.066-0.012-2.105-0.085-3.132-0.196C14.942,42.634,10.543,41.439,7,39.687
					c3.717,3.194,9.438,5.279,15.84,5.352c6.243,0.073,11.801-1.783,15.485-4.756c-3.368,1.495-7.441,2.495-11.898,2.81
					C25.287,43.202,24.111,43.253,22.918,43.236z"/>
			</g>
			<g>
				
					<radialGradient id="SVGID_2_" cx="12.8345" cy="50.4912" r="34.0839" gradientTransform="matrix(0.9999 0.016 -0.016 0.9999 20.3371 -35.9567)" gradientUnits="userSpaceOnUse">
					<stop  offset="0.163" style="stop-color:#FFFFFF"/>
					<stop  offset="1" style="stop-color:#E6E6E6"/>
				</radialGradient>
				<path fill="url(#SVGID_2_)" d="M22.679,35.266C12.385,35.1,3.623,31.36,0,26.183c2.128,6.728,11.617,11.912,22.984,12.049
					c11.374,0.139,20.783-4.815,22.781-11.497C42.06,31.888,33.099,35.433,22.679,35.266z"/>
			</g>
		</g>
		<g>
			<radialGradient id="SVGID_3_" cx="26.8774" cy="5.6582" r="34.8883" gradientUnits="userSpaceOnUse">
				<stop  offset="0" style="stop-color:#00B5F1"/>
				<stop  offset="1" style="stop-color:#0072BC"/>
			</radialGradient>
			<path fill="url(#SVGID_3_)" d="M24.851,28.934C11.913,29.746,1.014,23.936,0.513,15.958C0.038,8.429,9,1.666,20.881,0.243
				c0.617-0.082,1.241-0.146,1.879-0.187c0.049-0.003,0.098-0.003,0.147-0.005c0.042-0.003,0.085-0.008,0.127-0.012
				c0.423-0.032,0.841-0.027,1.264-0.04c-1.881,0.184-3.682,0.519-5.39,0.961c-5.89,1.768-9.918,5.525-9.661,9.631
				c0.336,5.325,7.753,9.193,16.568,8.64c5.802-0.365,10.749-2.561,13.367-5.535c-2.383,3.847-8.174,6.794-15.111,7.229
				c-9.345,0.587-17.216-3.607-17.578-9.37C6.369,9.597,7.144,7.715,8.567,6.055C5.73,8.514,4.13,11.496,4.328,14.623
				c0.462,7.374,10.732,12.73,22.933,11.962c8.035-0.5,14.883-3.544,18.507-7.662C42.469,24.245,34.454,28.325,24.851,28.934z"/>
		</g>
	</g>
	<g>
		<g>
			<g>
				<linearGradient id="SVGID_4_" gradientUnits="userSpaceOnUse" x1="78" y1="-2.5625" x2="78" y2="30.4182">
					<stop  offset="0" style="stop-color:#00B5F1"/>
					<stop  offset="1" style="stop-color:#0072BC"/>
				</linearGradient>
				<path fill="url(#SVGID_4_)" d="M77.764,39.226c-11.239,0-16.356-8.589-16.356-16.57c0-6.374,4.51-16.485,16.614-16.485
					c9.912,0,16.57,6.347,16.57,15.795C94.592,31.966,87.516,39.226,77.764,39.226L77.764,39.226z M77.72,6.897
					c-7.989,0-12.953,5.575-12.953,14.549c0,9.938,5.822,16.879,14.16,16.879c2.049,0,12.265-0.73,12.265-15.154
					C91.192,11.99,84.208,6.897,77.72,6.897L77.72,6.897z"/>
				<path fill="#0072BC" d="M78.022,5.802c9.698,0,16.939,6.12,16.939,16.163c0,9.655-6.811,17.629-17.197,17.629
					c-11.811,0-16.724-9.181-16.724-16.939C61.041,15.672,66.126,5.802,78.022,5.802 M78.927,37.956
					c3.88,0,11.896-2.241,11.896-14.784c0-10.345-6.293-15.905-13.103-15.905c-7.198,0-12.586,4.741-12.586,14.181
					C65.135,31.49,71.169,37.956,78.927,37.956 M78.133,6.538c6.545,0.21,13.426,5.436,13.426,16.634
					c0,11.455-6.805,15.52-12.632,15.52c-8.554,0-14.527-7.091-14.527-17.244c0-7.868,3.732-13.188,9.953-14.563
					c-9.09,1.803-12.577,10.23-12.577,15.771c0,7.805,5.004,16.204,15.988,16.204c9.538,0,16.462-7.104,16.462-16.894
					C94.226,12.772,87.764,6.585,78.133,6.538L78.133,6.538z"/>
			</g>
			<g>
				<linearGradient id="SVGID_5_" gradientUnits="userSpaceOnUse" x1="112.5952" y1="-2.5391" x2="112.5952" y2="30.4033">
					<stop  offset="0" style="stop-color:#00B5F1"/>
					<stop  offset="1" style="stop-color:#0072BC"/>
				</linearGradient>
				<path fill="url(#SVGID_5_)" d="M103.428,38.61c0.068-0.013,0.125-0.025,0.171-0.035c1.195-0.24,1.392-1.651,1.536-2.683
					c0.217-1.838,0.217-5.176,0.217-9.401v-7.587c0-6.729,0-7.941-0.086-9.333c-0.087-1.488-0.463-2.423-2.107-2.784
					c1.035,0.021,2.087,0.061,2.797,0.088c0.43,0.017,0.736,0.026,0.841,0.026c0.391,0,1.041-0.021,1.812-0.046
					c1.102-0.037,2.45-0.083,3.619-0.083c5.255,0,7.144,1.774,7.764,2.356c0.758,0.722,2.041,2.561,2.041,4.862
					c0,5.823-4.21,9.891-10.237,9.891c-0.006,0-0.015,0-0.022,0c4.295-0.094,7.632-3.306,7.632-7.39c0-1.071,0-4.331-2.519-6.896
					c-1.993-2.032-4.21-2.269-5.704-2.269l-0.273,0.003l-0.189,0.002c-0.407,0-1.415,0.026-2.004,0.29
					c-0.562,0.184-0.562,0.914-0.562,1.154v17.715c0,4.226,0,7.563,0.217,9.396c0.123,1.188,0.391,2.478,2,2.694
					c0.066,0.011,0.14,0.019,0.215,0.029c-1.354-0.023-2.634-0.073-3.346-0.101c-0.29-0.01-0.48-0.017-0.53-0.017
					c-0.031,0-0.215,0.007-0.494,0.02C105.565,38.539,104.388,38.587,103.428,38.61L103.428,38.61z"/>
				<path fill="#0072BC" d="M112.227,6.405c5.387,0,7.327,1.81,8.017,2.456c0.948,0.905,2.155,2.846,2.155,5.13
					c0,6.12-4.482,10.258-10.604,10.258c-0.216,0-0.689,0-0.905-0.043c-0.216,0-0.474-0.086-0.474-0.302
					c0-0.345,0.258-0.388,1.163-0.388c4.181,0,7.457-3.061,7.457-7.025c0-1.423-0.13-4.311-2.414-6.638
					c-1.988-2.027-4.239-2.158-5.442-2.158c-0.179,0-0.335,0.003-0.463,0.003c-0.732,0-1.465,0.086-1.853,0.259
					c-0.259,0.086-0.345,0.388-0.345,0.818V26.49c0,4.139,0,7.543,0.215,9.354c0.13,1.25,0.389,2.198,1.682,2.371
					c0.604,0.086,1.551,0.172,1.939,0.172c0.259,0,0.345,0.129,0.345,0.259c0,0.216-0.216,0.345-0.689,0.345
					c-2.371,0-5.087-0.129-5.302-0.129c-0.129,0-2.845,0.129-4.138,0.129c-0.475,0-0.69-0.086-0.69-0.345
					c0-0.13,0.087-0.259,0.346-0.259c0.388,0,0.904-0.086,1.293-0.172c0.861-0.173,1.077-1.121,1.25-2.371
					c0.215-1.811,0.215-5.215,0.215-9.354v-7.586c0-6.724,0-7.931-0.086-9.31c-0.086-1.466-0.431-2.155-1.854-2.457
					c-0.345-0.086-1.077-0.129-1.465-0.129c-0.173,0-0.346-0.087-0.346-0.259c0-0.259,0.216-0.345,0.69-0.345
					c1.939,0,4.525,0.129,4.87,0.129C107.744,6.534,110.244,6.405,112.227,6.405 M113.253,7.165
					c1.164,0.259,2.592,0.846,3.895,2.173c2.624,2.674,2.624,6.046,2.624,7.153c0,2.206-0.925,4.17-2.435,5.57
					c2.687-1.626,4.326-4.507,4.326-8.07c0-2.177-1.212-3.914-1.928-4.598C119.187,8.879,117.581,7.374,113.253,7.165L113.253,7.165
					z M104.83,7.201c0.56,0.56,0.745,1.354,0.804,2.351c0.087,1.399,0.087,2.613,0.087,9.353v7.586c0,4.238,0,7.587-0.22,9.44
					c-0.097,0.7-0.225,1.622-0.692,2.269c0.537-0.02,1.038-0.04,1.387-0.055c0.29-0.012,0.481-0.019,0.515-0.019
					c0.053,0,0.246,0.007,0.543,0.018c0.376,0.015,0.911,0.034,1.532,0.054c-0.615-0.681-0.717-1.653-0.781-2.277
					c-0.219-1.843-0.219-5.191-0.219-9.43V8.775c0-0.989,0.434-1.364,0.812-1.504c0.044-0.019,0.09-0.036,0.137-0.053
					c-0.038,0.001-0.076,0.002-0.114,0.004c-0.775,0.025-1.432,0.047-1.824,0.047c-0.105,0-0.415-0.011-0.851-0.027
					C105.629,7.23,105.248,7.216,104.83,7.201L104.83,7.201z"/>
			</g>
			<g>
				<linearGradient id="SVGID_6_" gradientUnits="userSpaceOnUse" x1="139.4048" y1="-2.4443" x2="139.4048" y2="30.4339">
					<stop  offset="0" style="stop-color:#00B5F1"/>
					<stop  offset="1" style="stop-color:#0072BC"/>
				</linearGradient>
				<path fill="url(#SVGID_6_)" d="M145.348,38.751c-2.686,0-4.815-0.061-6.37-0.104l-0.902-0.025
					c-1.775-0.09-2.756-0.128-3.373-0.128c-0.088,0-0.827,0-1.742,0.044c-0.017,0-0.035,0-0.054,0c-0.438,0-0.922,0.023-1.371,0.046
					c-0.032,0.002-0.062,0.005-0.093,0.005c0.023-0.005,0.044-0.009,0.063-0.013c1.195-0.243,1.392-1.652,1.534-2.682
					c0.22-1.839,0.22-5.176,0.22-9.402v-7.587c0-6.729,0-7.941-0.088-9.333c-0.088-1.499-0.467-2.437-2.146-2.793
					c-0.003,0-0.005-0.002-0.009-0.002c0.657,0.004,1.316,0.015,1.898,0.04l1.768,0.083c0.143,0,0.456,0,0.886,0
					c2.347,0,8.198-0.006,9.019-0.039c0.802-0.044,1.539-0.13,1.926-0.227c0.115-0.025,0.222-0.075,0.314-0.121
					c-0.011,0.088-0.04,0.211-0.073,0.36c-0.073,0.328-0.185,0.824-0.264,1.563c-0.017,0.159-0.038,0.513-0.063,0.925
					c-0.027,0.426-0.059,0.949-0.092,1.355c-0.033-0.346-0.104-0.8-0.262-1.177c-0.394-0.9-1.043-1.433-3.358-1.691
					c-0.784-0.091-5.629-0.13-5.945-0.13c-0.146,0-0.628,0.059-0.628,0.797v11.897c0,0.53,0.211,0.798,0.628,0.798
					c1.38,0,5.95-0.006,6.884-0.088c1.089-0.09,1.783-0.184,2.27-0.725l0.086-0.098c0.033-0.038,0.066-0.078,0.1-0.115
					c-0.01,0.059-0.021,0.119-0.033,0.188c-0.077,0.412-0.192,1.038-0.276,1.944c-0.052,0.54-0.108,1.395-0.143,2.026
					c-0.022-0.106-0.052-0.217-0.088-0.332c-0.188-0.662-0.659-1.572-2.556-1.768c-1.221-0.136-5.559-0.218-6.201-0.218
					c-0.399,0-0.67,0.271-0.67,0.67v3.794l-0.006,1.895c-0.011,2.039-0.023,4.832,0.008,5.491c0.141,3.232,1.043,3.888,5.368,3.888
					c1.155,0,3.092,0,4.281-0.505c1.049-0.443,1.644-1.201,1.997-2.612c-0.111,1.014-0.324,2.642-0.474,3.266
					C147.096,38.736,147.059,38.751,145.348,38.751L145.348,38.751z"/>
				<path fill="#0072BC" d="M147.029,6.061c0.13,0,0.173,0.172,0.173,0.388c0,0.302-0.216,0.818-0.345,2.025
					c-0.044,0.432-0.13,2.328-0.216,2.845c-0.043,0.216-0.129,0.475-0.302,0.475c-0.259,0-0.345-0.216-0.345-0.561
					c0-0.302-0.043-1.034-0.259-1.552c-0.302-0.689-0.732-1.207-3.06-1.466c-0.733-0.086-5.432-0.129-5.905-0.129
					c-0.173,0-0.259,0.129-0.259,0.431v11.896c0,0.302,0.043,0.431,0.259,0.431c0.56,0,5.861,0,6.853-0.086
					c1.035-0.086,1.639-0.172,2.026-0.604c0.302-0.345,0.474-0.561,0.646-0.561c0.13,0,0.216,0.087,0.216,0.346
					c0,0.258-0.216,0.991-0.346,2.413c-0.086,0.862-0.172,2.457-0.172,2.759c0,0.345,0,0.818-0.302,0.818
					c-0.216,0-0.302-0.172-0.302-0.388c0-0.431,0-0.861-0.172-1.422c-0.173-0.604-0.561-1.336-2.242-1.509
					c-1.163-0.129-5.431-0.216-6.163-0.216c-0.216,0-0.302,0.13-0.302,0.302v3.793c0,1.466-0.043,6.466,0,7.371
					c0.129,2.974,0.775,3.534,5,3.534c1.12,0,3.018,0,4.138-0.475c1.12-0.474,1.638-1.336,1.939-3.103
					c0.086-0.475,0.173-0.646,0.388-0.646c0.259,0,0.259,0.345,0.259,0.646c0,0.345-0.345,3.275-0.561,4.181
					c-0.302,1.12-0.646,1.12-2.327,1.12c-3.232,0-5.604-0.086-7.284-0.129c-1.681-0.086-2.716-0.129-3.362-0.129
					c-0.086,0-0.818,0-1.724,0.043c-0.862,0-1.854,0.086-2.5,0.086c-0.475,0-0.689-0.086-0.689-0.345
					c0-0.13,0.086-0.259,0.345-0.259c0.388,0,0.904-0.086,1.293-0.172c0.861-0.173,1.077-1.121,1.25-2.371
					c0.215-1.811,0.215-5.215,0.215-9.354v-7.586c0-6.724,0-7.931-0.086-9.31c-0.086-1.466-0.431-2.155-1.854-2.457
					c-0.345-0.086-1.077-0.129-1.465-0.129c-0.173,0-0.346-0.087-0.346-0.259c0-0.259,0.216-0.345,0.69-0.345
					c0.991,0,2.155,0,3.103,0.043l1.768,0.086c0.302,0,8.879,0,9.871-0.043c0.818-0.043,1.508-0.13,1.854-0.216
					C146.641,6.232,146.813,6.061,147.029,6.061 M146.341,7.046c-0.416,0.077-1.045,0.144-1.73,0.18
					c-0.986,0.043-8.999,0.044-9.909,0.044l-1.804-0.087c-0.062-0.003-0.125-0.005-0.188-0.008c0.579,0.561,0.771,1.365,0.83,2.377
					c0.087,1.398,0.087,2.613,0.087,9.353v7.586c0,4.238,0,7.587-0.22,9.44c-0.096,0.689-0.221,1.595-0.672,2.24
					c0.082-0.001,0.163-0.002,0.243-0.002c0.821-0.04,1.527-0.043,1.724-0.043c0.619,0,1.572,0.036,3.399,0.13l0.942,0.025
					c1.629,0.046,3.655,0.103,6.305,0.103c1.462,0,1.462,0,1.617-0.576c0.053-0.222,0.116-0.599,0.182-1.035
					c-0.329,0.354-0.728,0.622-1.211,0.826c-1.257,0.532-3.239,0.532-4.424,0.532c-4.233,0-5.576-0.584-5.735-4.237
					c-0.031-0.668-0.019-3.353-0.008-5.51c0.004-0.797,0.008-1.483,0.008-1.894v-3.793c0-0.601,0.436-1.037,1.037-1.037
					c0.644,0,4.997,0.082,6.244,0.22c1.219,0.126,1.913,0.529,2.325,0.996c0.017-0.218,0.034-0.422,0.051-0.597
					c0.042-0.456,0.092-0.842,0.142-1.167c-0.497,0.242-1.113,0.314-1.892,0.379c-0.946,0.082-5.53,0.088-6.913,0.088
					c-0.233,0-0.994-0.084-0.994-1.166V8.517c0-0.86,0.535-1.166,0.994-1.166c0.317,0,5.184,0.039,5.991,0.134
					c1.983,0.221,2.84,0.65,3.331,1.332c0.012-0.183,0.023-0.329,0.032-0.417C146.188,7.808,146.272,7.369,146.341,7.046
					L146.341,7.046z"/>
			</g>
			<g>
				<linearGradient id="SVGID_7_" gradientUnits="userSpaceOnUse" x1="172.6279" y1="-2.5928" x2="172.6279" y2="30.3871">
					<stop  offset="0" style="stop-color:#00B5F1"/>
					<stop  offset="1" style="stop-color:#0072BC"/>
				</linearGradient>
				<path fill="url(#SVGID_7_)" d="M186.238,38.899c-0.366-0.186-1.558-1.374-2.81-2.626c-0.476-0.432-6.652-6.737-11.241-11.671
					c-5.845-6.3-11.191-12.305-11.244-12.363l-0.671-0.753l0.027,1.008l0.562,20.645c0.089,3.633,0.562,4.934,1.944,5.344
					c0.2,0.053,0.404,0.095,0.604,0.128c-1.161-0.019-2.076-0.062-2.685-0.092c-0.321-0.015-0.545-0.025-0.658-0.025
					c-0.124,0-0.385,0.013-0.749,0.029c-0.566,0.027-1.41,0.067-2.344,0.088c0.164-0.035,0.33-0.079,0.492-0.132
					c1.399-0.394,1.547-2.077,1.547-5.824l0.042-24.696c0-1.41,0.103-1.744,0.164-1.818c0.08,0.08,0.545,0.6,0.797,0.878
					c0.144,0.159,0.278,0.309,0.392,0.423c0.644,0.729,7.051,7.652,13.699,14.774c2.253,2.415,4.629,5.02,6.568,7.151
					c1.746,1.916,3.127,3.429,3.779,4.104l0.651,0.673l-0.019-0.938l-0.474-21.896c-0.042-2.786-0.323-4.021-1.954-4.441
					c-0.135-0.029-0.273-0.057-0.412-0.078c0.854,0.019,1.657,0.053,2.257,0.078c0.45,0.019,0.789,0.033,0.949,0.033
					c0.166,0,0.444-0.015,0.812-0.035c0.507-0.03,1.209-0.067,2.018-0.085c-1.774,0.386-1.862,1.774-1.862,4.191l-0.086,25.257
					C186.334,36.979,186.334,38.461,186.238,38.899L186.238,38.899z"/>
				<path fill="#0072BC" d="M159.16,5.802c0.345,0,1.078,0.948,1.509,1.379c0.646,0.732,7.068,7.673,13.707,14.784
					c4.267,4.568,8.965,9.827,10.344,11.25l-0.474-21.896c-0.043-2.802-0.345-3.75-1.681-4.095
					c-0.776-0.172-1.768-0.215-2.112-0.215c-0.302,0-0.345-0.13-0.345-0.302c0-0.259,0.345-0.302,0.861-0.302
					c1.939,0,4.009,0.129,4.483,0.129c0.474,0,1.896-0.129,3.663-0.129c0.475,0,0.776,0.043,0.776,0.302
					c0,0.172-0.173,0.302-0.475,0.302c-0.216,0-0.517,0-1.034,0.129c-1.422,0.302-1.595,1.25-1.595,3.836l-0.086,25.258
					c0,2.845-0.087,3.061-0.388,3.061c-0.346,0-0.862-0.475-3.146-2.759c-0.475-0.431-6.682-6.767-11.25-11.681
					c-5-5.388-9.871-10.818-11.25-12.37l0.561,20.646c0.086,3.535,0.518,4.655,1.681,5c0.819,0.216,1.768,0.259,2.155,0.259
					c0.216,0,0.345,0.086,0.345,0.259c0,0.259-0.259,0.345-0.775,0.345c-2.457,0-4.181-0.129-4.569-0.129
					c-0.388,0-2.198,0.129-4.138,0.129c-0.431,0-0.689-0.043-0.689-0.345c0-0.173,0.129-0.259,0.345-0.259
					c0.345,0,1.121-0.043,1.768-0.259c1.077-0.302,1.293-1.552,1.293-5.474l0.043-24.697C158.686,6.275,158.815,5.802,159.16,5.802
					 M159.447,6.94c-0.015,0.239-0.025,0.566-0.025,1.017l-0.043,24.698c0,2.913-0.094,4.643-0.812,5.535
					c0.277-0.013,0.525-0.024,0.735-0.034c0.37-0.019,0.638-0.03,0.764-0.03c0.116,0,0.348,0.01,0.678,0.026
					c0.245,0.011,0.541,0.025,0.883,0.039c-0.852-0.889-1.07-2.531-1.132-5.046l-0.561-20.644l-0.055-2.016l1.34,1.508
					c1.441,1.622,6.271,7.005,11.239,12.358c4.593,4.939,10.749,11.222,11.205,11.636c0.829,0.828,1.723,1.722,2.274,2.213
					c0.03-0.636,0.03-1.541,0.03-1.97l0.086-25.26c0-1.526,0-2.909,0.732-3.765c-0.183,0.01-0.35,0.019-0.5,0.027
					c-0.377,0.021-0.663,0.035-0.833,0.035c-0.162,0-0.505-0.014-0.964-0.033c-0.145-0.007-0.302-0.013-0.468-0.02
					c0.829,0.854,0.933,2.293,0.96,4.09l0.474,21.893l0.041,1.873l-1.305-1.346c-0.657-0.678-2.034-2.189-3.777-4.103
					c-1.925-2.113-4.32-4.742-6.575-7.157c-6.666-7.141-13.071-14.063-13.722-14.8c-0.088-0.086-0.229-0.242-0.38-0.409
					C159.658,7.171,159.554,7.056,159.447,6.94L159.447,6.94z"/>
			</g>
			<g>
				<linearGradient id="SVGID_8_" gradientUnits="userSpaceOnUse" x1="211.6812" y1="-18.1514" x2="211.6812" y2="23.2232">
					<stop  offset="0.85" style="stop-color:#FFFFFF"/>
					<stop  offset="1" style="stop-color:#E6E7E8"/>
				</linearGradient>
				<path fill="url(#SVGID_8_)" d="M215.524,39.226c-5.816,0-10.507-1.521-13.941-4.521c-2.306-2.008-5.001-6.355-5.001-12.007
					c0-5.916,2.627-11.102,7.025-13.87c3.786-2.354,8.011-2.656,11.271-2.656c3.068,0,6.484,0.716,6.519,0.723
					c0.984,0.234,2.534,0.399,3.553,0.439c0.14,0.015,0.184,0.049,0.186,0.049c-0.022,0.127-0.044,0.323-0.076,0.61
					c-0.084,0.797-0.24,2.269-0.247,5.306c-0.107-0.766-0.389-1.766-0.915-2.604c-1.2-1.828-4.891-3.665-10.441-3.665
					c-2.984,0-6.195,0.355-9.452,2.924c-2.761,2.189-4.407,6.389-4.407,11.237c0,6.041,2.94,10.514,4.68,12.202
					c3.209,3.129,7.094,4.716,11.549,4.716c1.715,0,3.957-0.296,5.099-0.953c0.691-0.374,1.046-0.989,1.046-1.828V28
					c0-3.438-0.19-4.235-2.191-4.792c1.166,0.023,2.371,0.07,3.043,0.096c0.321,0.013,0.535,0.021,0.59,0.021
					c0.063,0,0.343-0.01,0.738-0.027c0.706-0.027,1.763-0.069,2.633-0.089c-1.409,0.288-1.756,1.323-1.841,2.788
					c-0.086,1.389-0.086,2.695-0.086,4.502v4.828c0,1.79-0.021,1.803-0.379,2.012C221.856,38.727,218.132,39.226,215.524,39.226
					L215.524,39.226z"/>
				<path fill="#E6E7E8" d="M214.876,5.802c2.716,0,5.776,0.56,6.595,0.732c0.905,0.216,2.414,0.388,3.491,0.431
					c0.432,0.044,0.518,0.216,0.518,0.389c0,0.604-0.302,1.81-0.302,6.12c0,0.689-0.086,0.905-0.388,0.905
					c-0.216,0-0.259-0.259-0.302-0.646c-0.043-0.604-0.259-1.811-0.905-2.845c-1.077-1.638-4.569-3.491-10.129-3.491
					c-2.716,0-5.948,0.259-9.224,2.845c-2.5,1.982-4.268,5.905-4.268,10.948c0,6.077,3.061,10.474,4.568,11.938
					c3.405,3.319,7.328,4.612,11.293,4.612c1.552,0,3.793-0.259,4.914-0.905c0.561-0.302,0.862-0.775,0.862-1.509v-7.327
					c0-3.491-0.216-3.966-1.94-4.439c-0.344-0.086-1.077-0.129-1.465-0.129c-0.173,0-0.345-0.087-0.345-0.259
					c0-0.259,0.216-0.345,0.689-0.345c1.939,0,4.655,0.129,4.87,0.129c0.216,0,2.932-0.129,4.225-0.129
					c0.474,0,0.689,0.086,0.689,0.345c0,0.172-0.172,0.259-0.345,0.259c-0.302,0-0.561,0.043-1.077,0.129
					c-1.164,0.216-1.509,0.948-1.596,2.457c-0.086,1.379-0.086,2.672-0.086,4.482v4.827c0,1.939-0.043,2.026-0.561,2.328
					c-2.758,1.465-6.638,1.939-9.138,1.939c-3.275,0-9.396-0.432-14.181-4.612c-2.629-2.284-5.129-6.896-5.129-12.284
					c0-6.896,3.362-11.767,7.198-14.181C207.291,6.104,211.558,5.802,214.876,5.802 M214.876,6.537
					c-3.208,0-7.366,0.296-11.076,2.604c-4.289,2.699-6.852,7.768-6.852,13.556c0,5.176,2.449,9.62,4.876,11.729
					c3.367,2.941,7.975,4.433,13.698,4.433c2.446,0,6.217-0.485,8.793-1.854c0.005-0.004,0.097-0.058,0.121-0.079
					c0.049-0.134,0.049-1.016,0.049-1.6v-4.827c0-1.815,0-3.126,0.087-4.528c0.051-0.882,0.193-1.741,0.715-2.35
					c-0.413,0.016-0.805,0.031-1.125,0.044c-0.403,0.016-0.687,0.026-0.752,0.026c-0.057,0-0.276-0.008-0.606-0.021
					c-0.341-0.013-0.82-0.031-1.361-0.049c0.781,0.729,0.894,1.954,0.894,4.377v7.327c0,0.971-0.432,1.717-1.249,2.156
					c-1.266,0.73-3.629,0.993-5.263,0.993c-4.553,0-8.524-1.622-11.807-4.821c-1.778-1.728-4.79-6.299-4.79-12.465
					c0-4.959,1.699-9.268,4.546-11.524c3.344-2.641,6.629-3.004,9.681-3.004c5.685,0,9.492,1.92,10.743,3.822
					c0.105,0.168,0.199,0.338,0.284,0.507c0.054-1.562,0.151-2.47,0.212-3.037c0.01-0.098,0.02-0.186,0.027-0.264
					c-0.999-0.05-2.466-0.212-3.421-0.439C220.146,7.006,217.29,6.537,214.876,6.537L214.876,6.537z"/>
			</g>
			<g>
				<linearGradient id="SVGID_9_" gradientUnits="userSpaceOnUse" x1="252.6167" y1="-18.1318" x2="252.6167" y2="23.2257">
					<stop  offset="0.85" style="stop-color:#FFFFFF"/>
					<stop  offset="1" style="stop-color:#E6E7E8"/>
				</linearGradient>
				<path fill="url(#SVGID_9_)" d="M250.546,39.011c-1.506,0-3.513-0.087-5.966-0.259c-0.945-0.063-1.784-0.13-2.412-0.176
					c-0.648-0.052-1.081-0.083-1.191-0.083c-0.085,0-0.826,0-1.742,0.044c-0.45,0-0.955,0.023-1.425,0.047
					c-0.031,0.002-0.063,0.002-0.096,0.005c0.026-0.005,0.047-0.011,0.068-0.016c1.195-0.237,1.391-1.647,1.533-2.678
					c0.219-1.841,0.219-5.18,0.219-9.405v-7.586c0-6.729,0-7.94-0.087-9.333c-0.087-1.489-0.461-2.426-2.108-2.786
					c1.165,0.022,2.374,0.071,3.047,0.098c0.32,0.01,0.535,0.019,0.591,0.019c0.161,0,0.537-0.013,1.055-0.029
					c1.115-0.036,2.984-0.101,4.764-0.101l0.824-0.002l0.977-0.004c5.227,0,11.122,0.571,15.221,4.808
					c1.858,1.935,4.077,5.36,4.077,10.693c0,6.411-3.186,10.459-4.556,11.902C260.31,37.336,255.887,39.011,250.546,39.011
					L250.546,39.011z M246.15,7.503c-0.649,0-2.486,0.1-2.965,0.339c-0.51,0.228-0.722,0.576-0.722,1.191
					c-0.043,1.459-0.043,5.923-0.043,9.181v5.346c0,4.771,0.045,8.581,0.085,9.374c0.072,1.732,0.193,2.987,0.546,3.472
					c0.86,1.258,3.355,1.873,7.624,1.873c4.071,0,7.904-1.499,10.519-4.115c2.191-2.149,3.555-6.197,3.555-10.562
					c0-5.8-2.654-9.452-4.238-11.112C256.583,8.35,251.928,7.503,246.15,7.503L246.15,7.503z"/>
				<path fill="#E6E7E8" d="M248.597,6.398c4.438,0,11.01,0.296,15.483,4.92c2.154,2.241,4.181,5.819,4.181,10.948
					c0,5.431-2.241,9.611-4.655,12.155c-1.854,1.939-5.732,4.956-13.06,4.956c-1.854,0-4.138-0.129-5.991-0.259
					c-1.896-0.129-3.362-0.258-3.578-0.258c-0.086,0-0.818,0-1.724,0.043c-0.862,0-1.854,0.086-2.5,0.086
					c-0.474,0-0.689-0.086-0.689-0.345c0-0.13,0.086-0.259,0.345-0.259c0.388,0,0.905-0.086,1.293-0.172
					c0.862-0.173,1.078-1.121,1.25-2.371c0.216-1.811,0.216-5.215,0.216-9.354v-7.586c0-6.724,0-7.931-0.087-9.31
					c-0.086-1.466-0.431-2.155-1.853-2.457c-0.345-0.086-1.078-0.129-1.466-0.129c-0.172,0-0.345-0.087-0.345-0.259
					c0-0.259,0.216-0.345,0.689-0.345c1.939,0,4.655,0.129,4.87,0.129c0.518,0,3.233-0.129,5.819-0.129
					C247.341,6.405,247.947,6.398,248.597,6.398 M250.675,37.912c4.009,0,7.716-1.465,10.259-4.008
					c2.241-2.198,3.448-6.336,3.448-10.302c0-5.474-2.371-9.008-4.138-10.861c-4.052-4.268-8.966-4.871-14.095-4.871
					c-0.862,0-2.457,0.13-2.802,0.302c-0.388,0.173-0.518,0.389-0.518,0.862c-0.043,1.466-0.043,5.862-0.043,9.181v5.345
					c0,4.569,0.043,8.534,0.086,9.354c0.044,1.077,0.13,2.802,0.475,3.275C243.909,37.008,245.589,37.912,250.675,37.912
					 M248.597,7.135c-0.338,0-0.664,0.002-0.976,0.003l-0.665,0.003c5.503,0.081,9.988,1.057,13.821,5.094
					c1.62,1.7,4.34,5.439,4.34,11.368c0,4.459-1.405,8.607-3.669,10.827c-2.436,2.436-5.905,3.93-9.647,4.181
					c4.677-0.242,8.556-1.854,11.273-4.696c1.337-1.409,4.451-5.369,4.451-11.647c0-5.209-2.162-8.552-3.976-10.438
					C259.549,7.692,253.746,7.135,248.597,7.135L248.597,7.135z M245.585,7.149c-1.371,0.019-2.681,0.062-3.543,0.091
					c-0.523,0.018-0.901,0.029-1.065,0.029c-0.057,0-0.276-0.008-0.605-0.021c-0.342-0.013-0.82-0.031-1.361-0.049
					c0.56,0.56,0.746,1.355,0.805,2.352c0.088,1.398,0.088,2.613,0.088,9.353v7.586c0,4.239,0,7.587-0.221,9.44
					c-0.095,0.689-0.22,1.595-0.67,2.24c0.081-0.002,0.161-0.002,0.241-0.002c0.821-0.04,1.527-0.043,1.724-0.043
					c0.131,0,0.448,0.023,1.217,0.082c0.628,0.049,1.466,0.113,2.411,0.177c1.887,0.133,3.512,0.215,4.85,0.244
					c-3.661-0.116-5.863-0.782-6.714-2.025c-0.397-0.545-0.526-1.807-0.603-3.66c-0.041-0.789-0.086-4.606-0.086-9.384v-5.345
					c0-3.261,0-7.726,0.043-9.202c0-0.745,0.294-1.219,0.953-1.513C243.498,7.275,244.798,7.182,245.585,7.149L245.585,7.149z"/>
			</g>
			<g>
				<linearGradient id="SVGID_10_" gradientUnits="userSpaceOnUse" x1="284.4741" y1="-18.1523" x2="284.4741" y2="23.2222">
					<stop  offset="0.85" style="stop-color:#FFFFFF"/>
					<stop  offset="1" style="stop-color:#E6E7E8"/>
				</linearGradient>
				<path fill="url(#SVGID_10_)" d="M282.6,39.225c-2.227,0-4.062-0.368-5.612-1.125c-0.424-0.213-0.441-0.221-0.441-1.308
					c0-1.578,0.092-2.926,0.16-3.802c0.02,0.22,0.051,0.454,0.103,0.688c0.596,2.935,3.115,4.689,6.738,4.689
					c4.287,0,6.532-3.068,6.532-6.102c0-3.284-1.572-5.135-5.09-8.042l-1.94-1.596c-4.539-3.723-5.468-6.319-5.468-9.068
					c0-4.49,3.356-7.391,8.554-7.391c1.478,0,2.724,0.132,3.923,0.42c0.818,0.172,1.201,0.228,1.593,0.228c0.023,0,0.043,0,0.06,0
					c-0.004,0.056-0.008,0.121-0.017,0.209c-0.043,0.572-0.146,1.891-0.153,4.087c-0.11-0.588-0.309-1.322-0.514-1.695
					c-0.404-0.743-1.77-2.475-5.712-2.475c-3.337,0-5.669,2.206-5.669,5.367c0,2.601,1.16,4.219,5.4,7.53l1.204,0.948
					c5.147,4.055,6.152,6.679,6.152,9.84c0,0.729-0.168,4.483-3.508,6.854C287.262,38.622,285.085,39.225,282.6,39.225L282.6,39.225
					z"/>
				<path fill="#E6E7E8" d="M286.134,5.802c1.681,0,2.931,0.172,4.009,0.431c0.818,0.173,1.164,0.216,1.508,0.216
					c0.346,0,0.432,0.086,0.432,0.302c0,0.215-0.173,1.638-0.173,4.568c0,0.689-0.086,0.991-0.302,0.991
					c-0.258,0-0.301-0.215-0.345-0.56c-0.043-0.518-0.302-1.682-0.56-2.155c-0.259-0.475-1.423-2.284-5.389-2.284
					c-2.974,0-5.301,1.853-5.301,4.999c0,2.457,1.12,4.009,5.258,7.241l1.207,0.948c5.086,4.009,6.293,6.681,6.293,10.13
					c0,1.767-0.689,5.043-3.664,7.154c-1.854,1.293-4.181,1.811-6.508,1.811c-2.025,0-4.009-0.302-5.775-1.164
					c-0.604-0.302-0.646-0.474-0.646-1.638c0-2.155,0.172-3.879,0.215-4.569c0.043-0.474,0.129-0.689,0.345-0.689
					c0.259,0,0.302,0.13,0.302,0.475c0,0.388,0,0.991,0.129,1.595c0.647,3.189,3.492,4.396,6.38,4.396
					c4.138,0,6.163-2.975,6.163-5.732c0-2.975-1.25-4.698-4.956-7.759l-1.94-1.595c-4.568-3.75-5.603-6.422-5.603-9.354
					C277.212,8.948,280.661,5.802,286.134,5.802 M286.134,6.537c-0.347,0-0.687,0.014-1.016,0.04
					c0.065-0.001,0.13-0.002,0.196-0.002c3.779,0,5.327,1.56,5.898,2.439c0.03-0.851,0.073-1.458,0.103-1.844
					c-0.33-0.024-0.711-0.089-1.325-0.219C288.805,6.668,287.585,6.537,286.134,6.537L286.134,6.537z M282.84,7.008
					c-3.052,0.959-4.893,3.323-4.893,6.552c0,2.645,0.907,5.151,5.334,8.785l1.94,1.595c3.613,2.984,5.225,4.894,5.225,8.327
					c0,3.214-2.369,6.468-6.898,6.468c-3.163,0-5.529-1.282-6.605-3.503c-0.018,0.484-0.029,1.009-0.029,1.561
					c0,0.249,0,0.766,0.049,0.881c0-0.002,0-0.002,0.001-0.002c0.008,0,0.057,0.034,0.19,0.101c1.495,0.73,3.279,1.087,5.446,1.087
					c2.408,0,4.513-0.581,6.087-1.679c3.188-2.263,3.35-5.854,3.35-6.551c0-3.121-0.958-5.568-6.013-9.552l-1.206-0.948
					c-4.349-3.396-5.539-5.077-5.539-7.819C279.279,9.79,280.662,7.837,282.84,7.008L282.84,7.008z"/>
			</g>
		</g>
	</g>
</g>
</svg>
